ffmpeg started on 2025-06-06 at 18:47:26
Report written to "D:\Convert\FFMetrics\reports\psnr_report-6.txt"
Log level: 32
Command line:
ffmpeg -hide_banner -nostdin -i "G:\\\xc0\xed\xe8\xec\xe5\\\xce\xed\xe3\xee\xe8\xed\xe3\xe8\\!_36_\xce\xf1\xe5\xed\xfc_2024\\DreamCast\\\xcf\xf3\xed\xe8\xf0\xf3 - \xec\xe8\xeb\xe0\xff \xf1\xeb\xe8\xe7\xfc\\[DC] Puniru wa Kawaii Slime - 05_Telegram_HEVC.mkv" -i "G:\\\xc0\xed\xe8\xec\xe5\\\xce\xed\xe3\xee\xe8\xed\xe3\xe8\\!_36_\xce\xf1\xe5\xed\xfc_2024\\DreamCast\\\xcf\xf3\xed\xe8\xf0\xf3 - \xec\xe8\xeb\xe0\xff \xf1\xeb\xe8\xe7\xfc\\[DC] Puniru wa Kawaii Slime - 05_Telegram.mp4" -lavfi "[0:v]settb=AVTB,setpts=PTS-STARTPTS,format=pix_fmts=yuv420p10,fps=24000/1001,scale=1920:1080:flags=bicubic[main];[1:v]settb=AVTB,setpts=PTS-STARTPTS,format=pix_fmts=yuv420p,fps=24000/1001,scale=1920:1080:flags=bicubic[ref];[main][ref]psnr=eof_action=endall:stats_file='D\\:/Convert/FFMetrics/logs/psnr_logfile-6.txt'" -f null -
Input #0, matroska,webm, from 'G:\Аниме\Онгоинги\!_36_Осень_2024\DreamCast\Пуниру - милая слизь\[DC] Puniru wa Kawaii Slime - 05_Telegram_HEVC.mkv':
  Metadata:
    COMPATIBLE_BRANDS: isomiso2avc1mp41
    MAJOR_BRAND     : isom
    MINOR_VERSION   : 512
    ENCODER         : Lavf61.7.100
  Duration: 00:23:56.72, start: -0.021000, bitrate: 1220 kb/s
  Stream #0:0: Video: hevc (Main 10), yuv420p10le(tv, bt709, progressive), 1920x1080 [SAR 1:1 DAR 16:9], 23.98 fps, 23.98 tbr, 1k tbn (default)
      Metadata:
        HANDLER_NAME    : VideoHandler
        VENDOR_ID       : [0][0][0][0]
        ENCODER         : Lavc61.19.100 libx265
        BPS             : 1022825
        DURATION        : 00:23:56.643708333
        NUMBER_OF_FRAMES: 34445
        NUMBER_OF_BYTES : 183679468
        _STATISTICS_WRITING_APP: mkvpropedit v66.0.0 ('Josie') 64-bit
        _STATISTICS_WRITING_DATE_UTC: 2025-06-03 12:32:17
        _STATISTICS_TAGS: BPS DURATION NUMBER_OF_FRAMES NUMBER_OF_BYTES
  Stream #0:1: Audio: aac (LC), 48000 Hz, stereo, fltp (default)
      Metadata:
        HANDLER_NAME    : SoundHandler
        VENDOR_ID       : [0][0][0][0]
        ENCODER         : Lavc61.19.100 aac
        BPS             : 194043
        DURATION        : 00:23:56.714000000
        NUMBER_OF_FRAMES: 67347
        NUMBER_OF_BYTES : 34848058
        _STATISTICS_WRITING_APP: mkvpropedit v66.0.0 ('Josie') 64-bit
        _STATISTICS_WRITING_DATE_UTC: 2025-06-03 12:32:17
        _STATISTICS_TAGS: BPS DURATION NUMBER_OF_FRAMES NUMBER_OF_BYTES
Input #1, mov,mp4,m4a,3gp,3g2,mj2, from 'G:\Аниме\Онгоинги\!_36_Осень_2024\DreamCast\Пуниру - милая слизь\[DC] Puniru wa Kawaii Slime - 05_Telegram.mp4':
  Metadata:
    major_brand     : isom
    minor_version   : 512
    compatible_brands: isomiso2avc1mp41
    encoder         : Lavf61.1.100
  Duration: 00:23:56.67, start: 0.000000, bitrate: 3610 kb/s
  Stream #1:0[0x1](und): Video: h264 (High) (avc1 / 0x31637661), yuv420p(tv, bt709, progressive), 1920x1080 [SAR 1:1 DAR 16:9], 3462 kb/s, 23.98 fps, 23.98 tbr, 24k tbn (default)
      Metadata:
        handler_name    : VideoHandler
        vendor_id       : [0][0][0][0]
        encoder         : Lavc61.3.100 h264_qsv
  Stream #1:1[0x2](und): Audio: aac (HE-AACv2) (mp4a / 0x6134706D), 48000 Hz, stereo, fltp, 144 kb/s (default)
      Metadata:
        handler_name    : SoundHandler
        vendor_id       : [0][0][0][0]
Stream mapping:
  Stream #0:0 (hevc) -> settb:default
  Stream #1:0 (h264) -> settb:default
  psnr:default -> Stream #0:0 (wrapped_avframe)
  Stream #0:1 -> #0:1 (aac (native) -> pcm_s16le (native))
Output #0, null, to 'pipe:':
  Metadata:
    COMPATIBLE_BRANDS: isomiso2avc1mp41
    MAJOR_BRAND     : isom
    MINOR_VERSION   : 512
    encoder         : Lavf61.7.100
  Stream #0:0: Video: wrapped_avframe, yuv420p10le(tv, bt709, progressive), 1920x1080 [SAR 1:1 DAR 16:9], q=2-31, 200 kb/s, 23.98 fps, 23.98 tbn
      Metadata:
        encoder         : Lavc61.19.100 wrapped_avframe
  Stream #0:1: Audio: pcm_s16le, 48000 Hz, stereo, s16, 1536 kb/s (default)
      Metadata:
        HANDLER_NAME    : SoundHandler
        VENDOR_ID       : [0][0][0][0]
        _STATISTICS_TAGS: BPS DURATION NUMBER_OF_FRAMES NUMBER_OF_BYTES
        BPS             : 194043
        DURATION        : 00:23:56.714000000
        NUMBER_OF_FRAMES: 67347
        NUMBER_OF_BYTES : 34848058
        _STATISTICS_WRITING_APP: mkvpropedit v66.0.0 ('Josie') 64-bit
        _STATISTICS_WRITING_DATE_UTC: 2025-06-03 12:32:17
        encoder         : Lavc61.19.100 pcm_s16le
frame=  190 fps=0.0 q=-0.0 size=N/A time=00:00:07.92 bitrate=N/A speed=15.1x    frame=  452 fps=437 q=-0.0 size=N/A time=00:00:18.85 bitrate=N/A speed=18.2x    frame=  711 fps=456 q=-0.0 size=N/A time=00:00:29.65 bitrate=N/A speed=  19x    frame=  985 fps=476 q=-0.0 size=N/A time=00:00:41.08 bitrate=N/A speed=19.8x    frame= 1197 fps=464 q=-0.0 size=N/A time=00:00:49.92 bitrate=N/A speed=19.4x    frame= 1465 fps=472 q=-0.0 size=N/A time=00:01:01.10 bitrate=N/A speed=19.7x    frame= 1750 fps=484 q=-0.0 size=N/A time=00:01:12.98 bitrate=N/A speed=20.2x    frame= 2019 fps=489 q=-0.0 size=N/A time=00:01:24.20 bitrate=N/A speed=20.4x    frame= 2294 fps=494 q=-0.0 size=N/A time=00:01:35.67 bitrate=N/A speed=20.6x    frame= 2571 fps=499 q=-0.0 size=N/A time=00:01:47.23 bitrate=N/A speed=20.8x    frame= 2858 fps=503 q=-0.0 size=N/A time=00:01:59.20 bitrate=N/A speed=  21x    frame= 3129 fps=505 q=-0.0 size=N/A time=00:02:10.50 bitrate=N/A speed=21.1x    frame= 3348 fps=499 q=-0.0 size=N/A time=00:02:19.63 bitrate=N/A speed=20.8x    frame= 3517 fps=487 q=-0.0 size=N/A time=00:02:26.68 bitrate=N/A speed=20.3x    frame= 3710 fps=479 q=-0.0 size=N/A time=00:02:34.73 bitrate=N/A speed=  20x    frame= 3931 fps=476 q=-0.0 size=N/A time=00:02:43.95 bitrate=N/A speed=19.9x    frame= 4156 fps=474 q=-0.0 size=N/A time=00:02:53.33 bitrate=N/A speed=19.8x    frame= 4355 fps=469 q=-0.0 size=N/A time=00:03:01.63 bitrate=N/A speed=19.6x    frame= 4501 fps=459 q=-0.0 size=N/A time=00:03:07.72 bitrate=N/A speed=19.2x    frame= 4684 fps=454 q=-0.0 size=N/A time=00:03:15.36 bitrate=N/A speed=18.9x    frame= 4880 fps=450 q=-0.0 size=N/A time=00:03:23.53 bitrate=N/A speed=18.8x    frame= 5081 fps=448 q=-0.0 size=N/A time=00:03:31.92 bitrate=N/A speed=18.7x    frame= 5326 fps=449 q=-0.0 size=N/A time=00:03:42.13 bitrate=N/A speed=18.7x    frame= 5590 fps=452 q=-0.0 size=N/A time=00:03:53.14 bitrate=N/A speed=18.8x    frame= 5845 fps=453 q=-0.0 size=N/A time=00:04:03.78 bitrate=N/A speed=18.9x    frame= 6120 fps=456 q=-0.0 size=N/A time=00:04:15.25 bitrate=N/A speed=  19x    frame= 6386 fps=459 q=-0.0 size=N/A time=00:04:26.34 bitrate=N/A speed=19.1x    frame= 6666 fps=461 q=-0.0 size=N/A time=00:04:38.02 bitrate=N/A speed=19.2x    frame= 6821 fps=456 q=-0.0 size=N/A time=00:04:44.49 bitrate=N/A speed=  19x    frame= 7109 fps=459 q=-0.0 size=N/A time=00:04:56.50 bitrate=N/A speed=19.2x    frame= 7353 fps=460 q=-0.0 size=N/A time=00:05:06.68 bitrate=N/A speed=19.2x    frame= 7612 fps=461 q=-0.0 size=N/A time=00:05:17.48 bitrate=N/A speed=19.2x    frame= 7826 fps=460 q=-0.0 size=N/A time=00:05:26.40 bitrate=N/A speed=19.2x    frame= 8104 fps=462 q=-0.0 size=N/A time=00:05:38.00 bitrate=N/A speed=19.3x    frame= 8271 fps=458 q=-0.0 size=N/A time=00:05:44.96 bitrate=N/A speed=19.1x    frame= 8540 fps=460 q=-0.0 size=N/A time=00:05:56.18 bitrate=N/A speed=19.2x    frame= 8787 fps=460 q=-0.0 size=N/A time=00:06:06.49 bitrate=N/A speed=19.2x    frame= 9006 fps=459 q=-0.0 size=N/A time=00:06:15.62 bitrate=N/A speed=19.2x    frame= 9253 fps=460 q=-0.0 size=N/A time=00:06:25.92 bitrate=N/A speed=19.2x    frame= 9527 fps=462 q=-0.0 size=N/A time=00:06:37.35 bitrate=N/A speed=19.3x    frame= 9778 fps=462 q=-0.0 size=N/A time=00:06:47.82 bitrate=N/A speed=19.3x    frame=10026 fps=463 q=-0.0 size=N/A time=00:06:58.16 bitrate=N/A speed=19.3x    frame=10213 fps=461 q=-0.0 size=N/A time=00:07:05.96 bitrate=N/A speed=19.2x    frame=10429 fps=460 q=-0.0 size=N/A time=00:07:14.97 bitrate=N/A speed=19.2x    frame=10714 fps=462 q=-0.0 size=N/A time=00:07:26.86 bitrate=N/A speed=19.3x    frame=10989 fps=463 q=-0.0 size=N/A time=00:07:38.33 bitrate=N/A speed=19.3x    frame=11275 fps=465 q=-0.0 size=N/A time=00:07:50.26 bitrate=N/A speed=19.4x    frame=11536 fps=466 q=-0.0 size=N/A time=00:08:01.14 bitrate=N/A speed=19.4x    frame=11796 fps=467 q=-0.0 size=N/A time=00:08:11.99 bitrate=N/A speed=19.5x    frame=12076 fps=468 q=-0.0 size=N/A time=00:08:23.66 bitrate=N/A speed=19.5x    frame=12230 fps=465 q=-0.0 size=N/A time=00:08:30.09 bitrate=N/A speed=19.4x    frame=12465 fps=465 q=-0.0 size=N/A time=00:08:39.89 bitrate=N/A speed=19.4x    frame=12752 fps=466 q=-0.0 size=N/A time=00:08:51.86 bitrate=N/A speed=19.4x    frame=13044 fps=468 q=-0.0 size=N/A time=00:09:04.04 bitrate=N/A speed=19.5x    frame=13300 fps=469 q=-0.0 size=N/A time=00:09:14.72 bitrate=N/A speed=19.5x    frame=13555 fps=469 q=-0.0 size=N/A time=00:09:25.35 bitrate=N/A speed=19.6x    frame=13841 fps=471 q=-0.0 size=N/A time=00:09:37.28 bitrate=N/A speed=19.6x    frame=14121 fps=472 q=-0.0 size=N/A time=00:09:48.96 bitrate=N/A speed=19.7x    frame=14365 fps=472 q=-0.0 size=N/A time=00:09:59.14 bitrate=N/A speed=19.7x    frame=14586 fps=471 q=-0.0 size=N/A time=00:10:08.35 bitrate=N/A speed=19.6x    frame=14801 fps=470 q=-0.0 size=N/A time=00:10:17.32 bitrate=N/A speed=19.6x    frame=15038 fps=470 q=-0.0 size=N/A time=00:10:27.20 bitrate=N/A speed=19.6x    frame=15274 fps=470 q=-0.0 size=N/A time=00:10:37.05 bitrate=N/A speed=19.6x    frame=15511 fps=470 q=-0.0 size=N/A time=00:10:46.93 bitrate=N/A speed=19.6x    frame=15759 fps=470 q=-0.0 size=N/A time=00:10:57.28 bitrate=N/A speed=19.6x    frame=16003 fps=470 q=-0.0 size=N/A time=00:11:07.45 bitrate=N/A speed=19.6x    frame=16223 fps=469 q=-0.0 size=N/A time=00:11:16.63 bitrate=N/A speed=19.6x    frame=16474 fps=470 q=-0.0 size=N/A time=00:11:27.10 bitrate=N/A speed=19.6x    frame=16694 fps=469 q=-0.0 size=N/A time=00:11:36.27 bitrate=N/A speed=19.6x    frame=16954 fps=469 q=-0.0 size=N/A time=00:11:47.12 bitrate=N/A speed=19.6x    frame=17197 fps=470 q=-0.0 size=N/A time=00:11:57.29 bitrate=N/A speed=19.6x    frame=17437 fps=469 q=-0.0 size=N/A time=00:12:07.26 bitrate=N/A speed=19.6x    frame=17647 fps=469 q=-0.0 size=N/A time=00:12:16.02 bitrate=N/A speed=19.5x    frame=17927 fps=470 q=-0.0 size=N/A time=00:12:27.70 bitrate=N/A speed=19.6x    frame=18179 fps=470 q=-0.0 size=N/A time=00:12:38.21 bitrate=N/A speed=19.6x    frame=18418 fps=470 q=-0.0 size=N/A time=00:12:48.18 bitrate=N/A speed=19.6x    frame=18681 fps=470 q=-0.0 size=N/A time=00:12:59.15 bitrate=N/A speed=19.6x    frame=18944 fps=471 q=-0.0 size=N/A time=00:13:10.12 bitrate=N/A speed=19.6x    frame=19155 fps=470 q=-0.0 size=N/A time=00:13:18.92 bitrate=N/A speed=19.6x    frame=19426 fps=471 q=-0.0 size=N/A time=00:13:30.22 bitrate=N/A speed=19.6x    frame=19667 fps=471 q=-0.0 size=N/A time=00:13:40.27 bitrate=N/A speed=19.6x    frame=19916 fps=471 q=-0.0 size=N/A time=00:13:50.66 bitrate=N/A speed=19.6x    frame=20158 fps=471 q=-0.0 size=N/A time=00:14:00.75 bitrate=N/A speed=19.6x    frame=20388 fps=470 q=-0.0 size=N/A time=00:14:10.34 bitrate=N/A speed=19.6x    frame=20638 fps=471 q=-0.0 size=N/A time=00:14:20.77 bitrate=N/A speed=19.6x    frame=20906 fps=471 q=-0.0 size=N/A time=00:14:31.95 bitrate=N/A speed=19.7x    frame=21144 fps=471 q=-0.0 size=N/A time=00:14:41.88 bitrate=N/A speed=19.7x    frame=21395 fps=471 q=-0.0 size=N/A time=00:14:52.34 bitrate=N/A speed=19.7x    frame=21648 fps=472 q=-0.0 size=N/A time=00:15:02.90 bitrate=N/A speed=19.7x    frame=21911 fps=472 q=-0.0 size=N/A time=00:15:13.87 bitrate=N/A speed=19.7x    frame=22180 fps=472 q=-0.0 size=N/A time=00:15:25.09 bitrate=N/A speed=19.7x    frame=22423 fps=472 q=-0.0 size=N/A time=00:15:35.22 bitrate=N/A speed=19.7x    frame=22653 fps=472 q=-0.0 size=N/A time=00:15:44.81 bitrate=N/A speed=19.7x    frame=22882 fps=472 q=-0.0 size=N/A time=00:15:54.37 bitrate=N/A speed=19.7x    frame=23103 fps=471 q=-0.0 size=N/A time=00:16:03.58 bitrate=N/A speed=19.7x    frame=23342 fps=471 q=-0.0 size=N/A time=00:16:13.55 bitrate=N/A speed=19.7x    frame=23584 fps=471 q=-0.0 size=N/A time=00:16:23.64 bitrate=N/A speed=19.7x    frame=23835 fps=471 q=-0.0 size=N/A time=00:16:34.11 bitrate=N/A speed=19.7x    frame=24088 fps=471 q=-0.0 size=N/A time=00:16:44.67 bitrate=N/A speed=19.7x    frame=24344 fps=472 q=-0.0 size=N/A time=00:16:55.34 bitrate=N/A speed=19.7x    frame=24594 fps=472 q=-0.0 size=N/A time=00:17:05.77 bitrate=N/A speed=19.7x    frame=24871 fps=473 q=-0.0 size=N/A time=00:17:17.32 bitrate=N/A speed=19.7x    frame=25134 fps=473 q=-0.0 size=N/A time=00:17:28.29 bitrate=N/A speed=19.7x    frame=25389 fps=473 q=-0.0 size=N/A time=00:17:38.93 bitrate=N/A speed=19.7x    frame=25609 fps=473 q=-0.0 size=N/A time=00:17:48.10 bitrate=N/A speed=19.7x    frame=25831 fps=472 q=-0.0 size=N/A time=00:17:57.36 bitrate=N/A speed=19.7x    frame=26109 fps=473 q=-0.0 size=N/A time=00:18:08.96 bitrate=N/A speed=19.7x    frame=26370 fps=473 q=-0.0 size=N/A time=00:18:19.84 bitrate=N/A speed=19.7x    frame=26588 fps=473 q=-0.0 size=N/A time=00:18:28.94 bitrate=N/A speed=19.7x    frame=26865 fps=473 q=-0.0 size=N/A time=00:18:40.49 bitrate=N/A speed=19.7x    frame=27133 fps=474 q=-0.0 size=N/A time=00:18:51.67 bitrate=N/A speed=19.8x    frame=27383 fps=474 q=-0.0 size=N/A time=00:19:02.09 bitrate=N/A speed=19.8x    frame=27607 fps=474 q=-0.0 size=N/A time=00:19:11.44 bitrate=N/A speed=19.8x    frame=27851 fps=473 q=-0.0 size=N/A time=00:19:21.61 bitrate=N/A speed=19.7x    frame=28095 fps=474 q=-0.0 size=N/A time=00:19:31.79 bitrate=N/A speed=19.7x    frame=28358 fps=474 q=-0.0 size=N/A time=00:19:42.76 bitrate=N/A speed=19.8x    frame=28611 fps=474 q=-0.0 size=N/A time=00:19:53.31 bitrate=N/A speed=19.8x    frame=28830 fps=474 q=-0.0 size=N/A time=00:20:02.45 bitrate=N/A speed=19.8x    frame=29065 fps=473 q=-0.0 size=N/A time=00:20:12.25 bitrate=N/A speed=19.7x    frame=29317 fps=474 q=-0.0 size=N/A time=00:20:22.76 bitrate=N/A speed=19.8x    frame=29543 fps=473 q=-0.0 size=N/A time=00:20:32.18 bitrate=N/A speed=19.7x    frame=29815 fps=474 q=-0.0 size=N/A time=00:20:43.53 bitrate=N/A speed=19.8x    frame=30053 fps=474 q=-0.0 size=N/A time=00:20:53.46 bitrate=N/A speed=19.8x    frame=30301 fps=474 q=-0.0 size=N/A time=00:21:03.80 bitrate=N/A speed=19.8x    frame=30541 fps=474 q=-0.0 size=N/A time=00:21:13.81 bitrate=N/A speed=19.8x    frame=30793 fps=474 q=-0.0 size=N/A time=00:21:24.32 bitrate=N/A speed=19.8x    frame=31080 fps=474 q=-0.0 size=N/A time=00:21:36.29 bitrate=N/A speed=19.8x    frame=31291 fps=474 q=-0.0 size=N/A time=00:21:45.09 bitrate=N/A speed=19.8x    frame=31503 fps=473 q=-0.0 size=N/A time=00:21:53.93 bitrate=N/A speed=19.7x    frame=31723 fps=473 q=-0.0 size=N/A time=00:22:03.11 bitrate=N/A speed=19.7x    frame=31924 fps=472 q=-0.0 size=N/A time=00:22:11.49 bitrate=N/A speed=19.7x    frame=32121 fps=472 q=-0.0 size=N/A time=00:22:19.71 bitrate=N/A speed=19.7x    frame=32357 fps=472 q=-0.0 size=N/A time=00:22:29.55 bitrate=N/A speed=19.7x    frame=32566 fps=471 q=-0.0 size=N/A time=00:22:38.27 bitrate=N/A speed=19.6x    frame=32754 fps=470 q=-0.0 size=N/A time=00:22:46.11 bitrate=N/A speed=19.6x    frame=32906 fps=469 q=-0.0 size=N/A time=00:22:52.45 bitrate=N/A speed=19.6x    frame=33091 fps=468 q=-0.0 size=N/A time=00:23:00.17 bitrate=N/A speed=19.5x    frame=33348 fps=468 q=-0.0 size=N/A time=00:23:10.88 bitrate=N/A speed=19.5x    frame=33602 fps=469 q=-0.0 size=N/A time=00:23:21.48 bitrate=N/A speed=19.5x    frame=33879 fps=469 q=-0.0 size=N/A time=00:23:33.03 bitrate=N/A speed=19.6x    frame=34138 fps=469 q=-0.0 size=N/A time=00:23:43.83 bitrate=N/A speed=19.6x    frame=34364 fps=469 q=-0.0 size=N/A time=00:23:53.26 bitrate=N/A speed=19.6x    [Parsed_psnr_10 @ 000001fe52040ac0] PSNR y:48.547576 u:49.474211 v:49.235390 average:48.799858 min:38.734503 max:inf
[out#0/null @ 000001fe44ff4440] video:14801KiB audio:269388KiB subtitle:0KiB other streams:0KiB global headers:0KiB muxing overhead: unknown
frame=34445 fps=469 q=-0.0 Lsize=N/A time=00:23:56.64 bitrate=N/A speed=19.6x    
